# Blender v2.93.6 OBJ File: 'castle.blend'
# www.blender.org
mtllib Wood-Well.mtl
o Castle.001_Cube.001
v 1.307533 0.685282 -1.179808
v 2.311113 -1.314718 -2.183388
v 1.307533 0.685282 0.334986
v 2.311113 -1.314718 1.338566
v -0.296290 0.685282 -1.179808
v -1.299870 -1.314718 -2.183388
v -0.296290 0.685282 0.334986
v -1.299870 -1.314718 1.338566
v 2.311113 0.685282 1.338566
v -1.300615 0.693445 1.348629
v 2.311113 0.685282 -2.183388
v -1.300615 0.693445 -2.173325
v 1.428364 0.685282 0.455816
v -0.417866 0.693445 0.465879
v 1.428364 0.685282 -1.300638
v -0.417866 0.693445 -1.290575
v 0.998883 0.678093 0.582525
v 0.998883 0.678093 1.036306
v 0.518431 0.678093 0.582525
v 0.518431 0.678093 1.036306
v 0.998883 3.678705 1.036306
v 0.518431 3.678705 1.036306
v 0.998883 3.678705 0.582525
v 0.518431 3.678705 0.582525
v 0.518431 3.190102 1.036306
v 0.518431 3.190102 0.582525
v 0.998883 3.190102 1.036306
v 0.998883 3.190102 0.582525
v 0.518431 3.678705 -0.466116
v 0.998883 3.678705 -0.466116
v 0.518431 3.190102 -0.466116
v 0.998883 3.190102 -0.466116
v 0.518431 2.160178 0.582525
v 0.998883 2.160178 0.582525
v 0.518431 2.160178 1.036306
v 0.998883 2.160178 1.036306
v 0.518431 2.376462 1.036306
v 0.998883 2.376462 1.036306
v 0.518431 2.376462 0.582525
v 0.998883 2.376462 0.582525
v 0.654916 2.455139 0.336329
v 0.654916 2.392573 0.266979
v 0.862399 2.455139 0.336329
v 0.862399 2.392573 0.266979
v 0.654916 3.385255 -0.052462
v 0.654916 3.322690 -0.121813
v 0.862399 3.385255 -0.052462
v 0.862399 3.322690 -0.121813
v 0.998883 3.889912 1.036306
v 0.518431 3.889912 1.036306
v 0.998883 3.889912 0.582525
v 0.518431 3.889912 0.582525
v 0.518431 3.889912 -0.466116
v 0.998883 3.889912 -0.466116
vt 0.221961 0.925422
vt 0.221961 0.925422
vt 0.221961 0.925422
vt 0.432787 0.435560
vt 0.432787 0.435560
vt 0.432787 0.435560
vt 0.432787 0.435560
vt 0.432787 0.435560
vt 0.432787 0.435560
vt 0.432787 0.435560
vt 0.432787 0.435560
vt 0.432787 0.435560
vt 0.432787 0.435560
vt 0.436694 0.439467
vt 0.436694 0.439467
vt 0.436694 0.439467
vt 0.432787 0.435560
vt 0.575405 0.919222
vt 0.575405 0.919222
vt 0.575405 0.919222
vt 0.575405 0.919222
vt 0.575405 0.919222
vt 0.575405 0.919222
vt 0.575405 0.919222
vt 0.575405 0.919222
vt 0.581606 0.571978
vt 0.581606 0.571978
vt 0.581606 0.571978
vt 0.296370 0.944025
vt 0.296370 0.944025
vt 0.296370 0.944025
vt 0.581606 0.571978
vt 0.581606 0.571978
vt 0.581606 0.571978
vt 0.581606 0.571978
vt 0.581606 0.571978
vt 0.581606 0.571978
vt 0.581606 0.571978
vt 0.581606 0.571978
vt 0.581606 0.571978
vt 0.581606 0.571978
vt 0.581606 0.571978
vt 0.581606 0.571978
vt 0.581606 0.571978
vt 0.581606 0.571978
vt 0.581606 0.571978
vt 0.581606 0.571978
vt 0.581606 0.571978
vt 0.581606 0.571978
vt 0.581606 0.571978
vt 0.581606 0.571978
vt 0.581606 0.571978
vt 0.581606 0.571978
vt 0.581606 0.571978
vt 0.581606 0.571978
vt 0.581606 0.571978
vt 0.581606 0.571978
vt 0.581606 0.571978
vt 0.581606 0.571978
vt 0.581606 0.571978
vt 0.197158 0.944025
vt 0.197158 0.944025
vt 0.197158 0.944025
vt 0.197158 0.944025
vt 0.581606 0.571978
vt 0.581606 0.571978
vt 0.581606 0.571978
vt 0.296370 0.944025
vt 0.296370 0.944025
vt 0.577700 0.571978
vt 0.577700 0.571978
vt 0.577700 0.571978
vt 0.221961 0.925422
vt 0.432787 0.435560
vt 0.436694 0.439467
vt 0.581606 0.571978
vt 0.197157 0.944025
vt 0.197158 0.944025
vt 0.581606 0.571978
vt 0.296370 0.944025
vt 0.577700 0.571978
vn 0.0000 1.0000 0.0000
vn 0.0000 0.0000 1.0000
vn -1.0000 -0.0004 0.0000
vn 0.0000 -1.0000 0.0000
vn 1.0000 0.0000 0.0000
vn 0.0000 0.0000 -1.0000
vn 0.0044 1.0000 -0.0044
vn 0.0670 0.9978 0.0000
vn 0.0048 0.9977 0.0683
vn -1.0000 0.0000 0.0000
vn -0.9178 0.0000 -0.3970
vn 0.0000 0.3857 0.9226
vn 0.0000 0.9525 0.3044
vn 0.8533 0.3872 -0.3493
vn 0.0000 -0.8052 -0.5930
vn 0.0000 0.7425 -0.6698
vn 0.0000 -0.3857 -0.9226
vn 0.0028 -0.0050 1.0000
vn -0.0028 0.0050 -1.0000
vn 0.0023 1.0000 0.0023
vn 0.0000 0.9981 -0.0622
vn -0.8533 0.3872 -0.3493
vn 0.9178 0.0000 -0.3970
vn 0.0000 0.7425 -0.6699
usemtl Material
s off
f 5/1/1 3/2/1 1/3/1
f 9/4/2 8/5/2 4/6/2
f 8/5/3 12/7/3 6/8/3
f 2/9/4 8/5/4 6/8/4
f 11/10/5 4/6/5 2/9/5
f 6/8/6 11/10/6 2/9/6
f 14/11/7 9/4/7 13/12/7
f 13/12/1 11/10/1 15/13/1
f 14/14/1 12/15/1 10/16/1
f 15/13/7 12/7/7 16/17/7
f 3/18/7 14/19/7 13/20/7
f 3/18/1 15/21/1 1/22/1
f 7/23/8 16/24/8 14/19/8
f 5/25/9 15/21/9 16/24/9
f 18/26/4 19/27/4 17/28/4
f 21/29/2 50/30/2 22/31/2
f 25/32/10 24/33/10 26/34/10
f 27/35/2 22/36/2 25/32/2
f 22/36/10 52/37/10 24/33/10
f 28/38/5 21/39/5 27/35/5
f 40/40/5 27/35/5 38/41/5
f 39/42/6 28/38/6 40/40/6
f 38/41/2 25/32/2 37/43/2
f 37/43/10 26/34/10 39/42/10
f 31/44/6 30/45/6 32/46/6
f 26/34/4 32/46/4 28/38/4
f 28/38/5 30/45/5 23/47/5
f 24/33/10 31/44/10 26/34/10
f 20/48/10 33/49/10 19/27/10
f 18/26/2 35/50/2 20/48/2
f 19/27/6 34/51/6 17/28/6
f 17/28/5 36/52/5 18/26/5
f 35/50/10 39/42/10 33/49/10
f 36/52/2 37/43/2 35/50/2
f 39/42/11 42/53/11 33/49/11
f 34/51/5 38/41/5 36/52/5
f 43/54/12 45/55/12 41/56/12
f 39/42/13 43/54/13 41/56/13
f 40/40/14 44/57/14 43/54/14
f 33/49/15 44/57/15 34/51/15
f 46/58/16 47/59/16 48/60/16
f 43/54/5 48/60/5 47/59/5
f 42/53/17 48/60/17 44/57/17
f 41/56/10 46/58/10 42/53/10
f 52/61/1 49/62/1 51/63/1
f 51/63/1 53/64/1 52/61/1
f 30/45/5 51/65/5 23/47/5
f 29/66/6 54/67/6 30/45/6
f 23/68/5 49/69/5 21/29/5
f 24/70/10 53/71/10 29/72/10
f 5/1/1 7/73/1 3/2/1
f 9/4/18 10/74/18 8/5/18
f 8/5/3 10/74/3 12/7/3
f 2/9/4 4/6/4 8/5/4
f 11/10/5 9/4/5 4/6/5
f 6/8/19 12/7/19 11/10/19
f 14/11/20 10/74/20 9/4/20
f 13/12/1 9/4/1 11/10/1
f 14/14/1 16/75/1 12/15/1
f 15/13/20 11/10/20 12/7/20
f 3/18/21 7/23/21 14/19/21
f 3/18/1 13/20/1 15/21/1
f 7/23/8 5/25/8 16/24/8
f 5/25/1 1/22/1 15/21/1
f 18/26/4 20/48/4 19/27/4
f 21/29/2 49/69/2 50/30/2
f 25/32/10 22/36/10 24/33/10
f 27/35/2 21/39/2 22/36/2
f 22/36/10 50/76/10 52/37/10
f 28/38/5 23/47/5 21/39/5
f 40/40/5 28/38/5 27/35/5
f 39/42/6 26/34/6 28/38/6
f 38/41/2 27/35/2 25/32/2
f 37/43/10 25/32/10 26/34/10
f 31/44/6 29/66/6 30/45/6
f 26/34/4 31/44/4 32/46/4
f 28/38/5 32/46/5 30/45/5
f 24/33/10 29/66/10 31/44/10
f 20/48/10 35/50/10 33/49/10
f 18/26/2 36/52/2 35/50/2
f 19/27/6 33/49/6 34/51/6
f 17/28/5 34/51/5 36/52/5
f 35/50/10 37/43/10 39/42/10
f 36/52/2 38/41/2 37/43/2
f 39/42/22 41/56/22 42/53/22
f 34/51/5 40/40/5 38/41/5
f 43/54/12 47/59/12 45/55/12
f 39/42/13 40/40/13 43/54/13
f 40/40/23 34/51/23 44/57/23
f 33/49/15 42/53/15 44/57/15
f 46/58/24 45/55/24 47/59/24
f 43/54/5 44/57/5 48/60/5
f 42/53/17 46/58/17 48/60/17
f 41/56/10 45/55/10 46/58/10
f 52/61/1 50/77/1 49/62/1
f 51/63/1 54/78/1 53/64/1
f 30/45/5 54/67/5 51/65/5
f 29/66/6 53/79/6 54/67/6
f 23/68/5 51/80/5 49/69/5
f 24/70/10 52/81/10 53/71/10
