# Blender v2.93.6 OBJ File: 'fence.blend'
# www.blender.org
mtllib Fence.mtl
o Cube
v 0.269278 0.446358 -1.557520
v 0.269278 -0.342258 -1.557520
v 0.269278 0.446358 1.557519
v 0.269278 -0.342258 1.557519
v -0.269278 0.446358 -1.557520
v -0.269278 -0.342258 -1.557520
v -0.269278 0.446358 1.557519
v -0.269278 -0.342258 1.557519
v 0.269278 0.446358 1.521817
v 0.269278 -0.342258 1.521817
v 0.269278 0.446358 4.636857
v 0.269278 -0.342258 4.636857
v -0.269278 0.446358 1.521817
v -0.269278 -0.342258 1.521817
v -0.269278 0.446358 4.636857
v -0.269278 -0.342258 4.636857
v 0.269278 0.446358 -4.672888
v 0.269278 -0.342258 -4.672888
v 0.269278 0.446358 -1.557849
v 0.269278 -0.342258 -1.557849
v -0.269278 0.446358 -4.672888
v -0.269278 -0.342258 -4.672888
v -0.269278 0.446358 -1.557849
v -0.269278 -0.342258 -1.557849
v 0.269278 0.446358 4.620174
v 0.269278 -0.342258 4.620174
v 0.269278 0.446358 7.735213
v 0.269278 -0.342258 7.735213
v -0.269278 0.446358 4.620174
v -0.269278 -0.342258 4.620174
v -0.269278 0.446358 7.735213
v -0.269278 -0.342258 7.735213
v 0.269278 0.446358 -7.765541
v 0.269278 -0.342258 -7.765541
v 0.269278 0.446358 -4.650502
v 0.269278 -0.342258 -4.650502
v -0.269278 0.446358 -7.765541
v -0.269278 -0.342258 -7.765541
v -0.269278 0.446358 -4.650502
v -0.269278 -0.342258 -4.650502
vt 0.875000 0.500000
vt 0.625000 0.750000
vt 0.625000 0.500000
vt 0.375000 1.000000
vt 0.375000 0.750000
vt 0.625000 0.000000
vt 0.375000 0.250000
vt 0.375000 0.000000
vt 0.375000 0.500000
vt 0.125000 0.750000
vt 0.125000 0.500000
vt 0.625000 0.250000
vt 0.875000 0.500000
vt 0.625000 0.750000
vt 0.625000 0.500000
vt 0.375000 1.000000
vt 0.375000 0.750000
vt 0.625000 0.000000
vt 0.375000 0.250000
vt 0.375000 0.000000
vt 0.375000 0.500000
vt 0.125000 0.750000
vt 0.125000 0.500000
vt 0.625000 0.250000
vt 0.875000 0.500000
vt 0.625000 0.750000
vt 0.625000 0.500000
vt 0.375000 1.000000
vt 0.375000 0.750000
vt 0.625000 0.000000
vt 0.375000 0.250000
vt 0.375000 0.000000
vt 0.375000 0.500000
vt 0.125000 0.750000
vt 0.125000 0.500000
vt 0.625000 0.250000
vt 0.875000 0.500000
vt 0.625000 0.750000
vt 0.625000 0.500000
vt 0.375000 1.000000
vt 0.375000 0.750000
vt 0.625000 0.000000
vt 0.375000 0.250000
vt 0.375000 0.000000
vt 0.375000 0.500000
vt 0.125000 0.750000
vt 0.125000 0.500000
vt 0.625000 0.250000
vt 0.875000 0.500000
vt 0.625000 0.750000
vt 0.625000 0.500000
vt 0.375000 1.000000
vt 0.375000 0.750000
vt 0.625000 0.000000
vt 0.375000 0.250000
vt 0.375000 0.000000
vt 0.375000 0.500000
vt 0.125000 0.750000
vt 0.125000 0.500000
vt 0.625000 0.250000
vt 0.875000 0.750000
vt 0.625000 1.000000
vt 0.875000 0.750000
vt 0.625000 1.000000
vt 0.875000 0.750000
vt 0.625000 1.000000
vt 0.875000 0.750000
vt 0.625000 1.000000
vt 0.875000 0.750000
vt 0.625000 1.000000
vn 0.0000 1.0000 0.0000
vn 0.0000 0.0000 1.0000
vn -1.0000 0.0000 0.0000
vn 0.0000 -1.0000 0.0000
vn 1.0000 0.0000 0.0000
vn 0.0000 0.0000 -1.0000
usemtl Material
s off
f 5/1/1 3/2/1 1/3/1
f 3/2/2 8/4/2 4/5/2
f 7/6/3 6/7/3 8/8/3
f 2/9/4 8/10/4 6/11/4
f 1/3/5 4/5/5 2/9/5
f 5/12/6 2/9/6 6/7/6
f 13/13/1 11/14/1 9/15/1
f 11/14/2 16/16/2 12/17/2
f 15/18/3 14/19/3 16/20/3
f 10/21/4 16/22/4 14/23/4
f 9/15/5 12/17/5 10/21/5
f 13/24/6 10/21/6 14/19/6
f 21/25/1 19/26/1 17/27/1
f 19/26/2 24/28/2 20/29/2
f 23/30/3 22/31/3 24/32/3
f 18/33/4 24/34/4 22/35/4
f 17/27/5 20/29/5 18/33/5
f 21/36/6 18/33/6 22/31/6
f 29/37/1 27/38/1 25/39/1
f 27/38/2 32/40/2 28/41/2
f 31/42/3 30/43/3 32/44/3
f 26/45/4 32/46/4 30/47/4
f 25/39/5 28/41/5 26/45/5
f 29/48/6 26/45/6 30/43/6
f 37/49/1 35/50/1 33/51/1
f 35/50/2 40/52/2 36/53/2
f 39/54/3 38/55/3 40/56/3
f 34/57/4 40/58/4 38/59/4
f 33/51/5 36/53/5 34/57/5
f 37/60/6 34/57/6 38/55/6
f 5/1/1 7/61/1 3/2/1
f 3/2/2 7/62/2 8/4/2
f 7/6/3 5/12/3 6/7/3
f 2/9/4 4/5/4 8/10/4
f 1/3/5 3/2/5 4/5/5
f 5/12/6 1/3/6 2/9/6
f 13/13/1 15/63/1 11/14/1
f 11/14/2 15/64/2 16/16/2
f 15/18/3 13/24/3 14/19/3
f 10/21/4 12/17/4 16/22/4
f 9/15/5 11/14/5 12/17/5
f 13/24/6 9/15/6 10/21/6
f 21/25/1 23/65/1 19/26/1
f 19/26/2 23/66/2 24/28/2
f 23/30/3 21/36/3 22/31/3
f 18/33/4 20/29/4 24/34/4
f 17/27/5 19/26/5 20/29/5
f 21/36/6 17/27/6 18/33/6
f 29/37/1 31/67/1 27/38/1
f 27/38/2 31/68/2 32/40/2
f 31/42/3 29/48/3 30/43/3
f 26/45/4 28/41/4 32/46/4
f 25/39/5 27/38/5 28/41/5
f 29/48/6 25/39/6 26/45/6
f 37/49/1 39/69/1 35/50/1
f 35/50/2 39/70/2 40/52/2
f 39/54/3 37/60/3 38/55/3
f 34/57/4 36/53/4 40/58/4
f 33/51/5 35/50/5 36/53/5
f 37/60/6 33/51/6 34/57/6
o Cube.001
v -0.149833 -2.784177 0.192407
v 0.000000 2.794414 0.000000
v -0.149833 -2.784177 -0.192407
v 0.149833 -2.784177 0.192407
v 0.149833 -2.784177 -0.192407
v -0.265807 1.427798 0.878532
v -0.265807 1.427798 -0.878532
v 0.265807 1.427798 -0.878532
v 0.265807 1.427798 0.878532
v -0.149833 -2.784177 3.271744
v 0.000000 2.794414 3.079337
v -0.149833 -2.784177 2.886930
v 0.149833 -2.784177 3.271744
v 0.149833 -2.784177 2.886930
v -0.265807 1.427798 3.957869
v -0.265807 1.427798 2.200805
v 0.265807 1.427798 2.200805
v 0.265807 1.427798 3.957869
v -0.149833 -2.784177 -2.922961
v 0.000000 2.794414 -3.115368
v -0.149833 -2.784177 -3.307775
v 0.149833 -2.784177 -2.922961
v 0.149833 -2.784177 -3.307775
v -0.265807 1.427798 -2.236837
v -0.265807 1.427798 -3.993900
v 0.265807 1.427798 -3.993900
v 0.265807 1.427798 -2.236837
v -0.149833 -2.784177 6.370101
v 0.000000 2.794414 6.177693
v -0.149833 -2.784177 5.985287
v 0.149833 -2.784177 6.370101
v 0.149833 -2.784177 5.985287
v -0.265807 1.427798 7.056225
v -0.265807 1.427798 5.299162
v 0.265807 1.427798 5.299162
v 0.265807 1.427798 7.056225
v -0.149833 -2.784177 -6.015614
v 0.000000 2.794414 -6.208022
v -0.149833 -2.784177 -6.400429
v 0.149833 -2.784177 -6.015614
v 0.149833 -2.784177 -6.400429
v -0.265807 1.427798 -5.329490
v -0.265807 1.427798 -7.086554
v 0.265807 1.427798 -7.086554
v 0.265807 1.427798 -5.329490
vt 0.553850 0.000000
vt 0.625000 0.250000
vt 0.553850 0.250000
vt 0.625000 0.500000
vt 0.553850 0.500000
vt 0.625000 0.750000
vt 0.553850 0.750000
vt 0.625000 1.000000
vt 0.553850 1.000000
vt 0.375000 0.500000
vt 0.125000 0.750000
vt 0.125000 0.500000
vt 0.375000 1.000000
vt 0.375000 0.750000
vt 0.375000 0.250000
vt 0.375000 0.000000
vt 0.553850 0.000000
vt 0.625000 0.250000
vt 0.553850 0.250000
vt 0.625000 0.500000
vt 0.553850 0.500000
vt 0.625000 0.750000
vt 0.553850 0.750000
vt 0.625000 1.000000
vt 0.553850 1.000000
vt 0.375000 0.500000
vt 0.125000 0.750000
vt 0.125000 0.500000
vt 0.375000 1.000000
vt 0.375000 0.750000
vt 0.375000 0.250000
vt 0.375000 0.000000
vt 0.553850 0.000000
vt 0.625000 0.250000
vt 0.553850 0.250000
vt 0.625000 0.500000
vt 0.553850 0.500000
vt 0.625000 0.750000
vt 0.553850 0.750000
vt 0.625000 1.000000
vt 0.553850 1.000000
vt 0.375000 0.500000
vt 0.125000 0.750000
vt 0.125000 0.500000
vt 0.375000 1.000000
vt 0.375000 0.750000
vt 0.375000 0.250000
vt 0.375000 0.000000
vt 0.553850 0.000000
vt 0.625000 0.250000
vt 0.553850 0.250000
vt 0.625000 0.500000
vt 0.553850 0.500000
vt 0.625000 0.750000
vt 0.553850 0.750000
vt 0.625000 1.000000
vt 0.553850 1.000000
vt 0.375000 0.500000
vt 0.125000 0.750000
vt 0.125000 0.500000
vt 0.375000 1.000000
vt 0.375000 0.750000
vt 0.375000 0.250000
vt 0.375000 0.000000
vt 0.553850 0.000000
vt 0.625000 0.250000
vt 0.553850 0.250000
vt 0.625000 0.500000
vt 0.553850 0.500000
vt 0.625000 0.750000
vt 0.553850 0.750000
vt 0.625000 1.000000
vt 0.553850 1.000000
vt 0.375000 0.500000
vt 0.125000 0.750000
vt 0.125000 0.500000
vt 0.375000 0.750000
vt 0.375000 1.000000
vt 0.375000 0.250000
vt 0.375000 0.000000
vn -0.9816 0.1909 0.0000
vn 0.0000 0.5408 -0.8412
vn 0.9816 0.1909 0.0000
vn 0.0000 0.5408 0.8412
vn 0.0000 -1.0000 0.0000
vn 0.0000 -0.1608 0.9870
vn 0.9996 -0.0275 0.0000
vn 0.0000 -0.1608 -0.9870
vn -0.9996 -0.0275 0.0000
usemtl Material.001
s off
f 46/71/7 42/72/7 47/73/7
f 47/73/8 42/74/8 48/75/8
f 48/75/9 42/76/9 49/77/9
f 49/77/10 42/78/10 46/79/10
f 45/80/11 41/81/11 43/82/11
f 49/77/12 41/83/12 44/84/12
f 48/75/13 44/84/13 45/80/13
f 47/73/14 45/80/14 43/85/14
f 46/71/15 43/85/15 41/86/15
f 55/87/7 51/88/7 56/89/7
f 56/89/8 51/90/8 57/91/8
f 57/91/9 51/92/9 58/93/9
f 58/93/10 51/94/10 55/95/10
f 54/96/11 50/97/11 52/98/11
f 58/93/12 50/99/12 53/100/12
f 57/91/13 53/100/13 54/96/13
f 56/89/14 54/96/14 52/101/14
f 55/87/15 52/101/15 50/102/15
f 64/103/7 60/104/7 65/105/7
f 65/105/8 60/106/8 66/107/8
f 66/107/9 60/108/9 67/109/9
f 67/109/10 60/110/10 64/111/10
f 63/112/11 59/113/11 61/114/11
f 67/109/12 59/115/12 62/116/12
f 66/107/13 62/116/13 63/112/13
f 65/105/14 63/112/14 61/117/14
f 64/103/15 61/117/15 59/118/15
f 73/119/7 69/120/7 74/121/7
f 74/121/8 69/122/8 75/123/8
f 75/123/9 69/124/9 76/125/9
f 76/125/10 69/126/10 73/127/10
f 72/128/11 68/129/11 70/130/11
f 76/125/12 68/131/12 71/132/12
f 72/128/13 76/125/13 71/132/13
f 74/121/14 72/128/14 70/133/14
f 73/119/15 70/133/15 68/134/15
f 82/135/7 78/136/7 83/137/7
f 83/137/8 78/138/8 84/139/8
f 84/139/9 78/140/9 85/141/9
f 85/141/10 78/142/10 82/143/10
f 81/144/11 77/145/11 79/146/11
f 80/147/12 82/143/12 77/148/12
f 81/144/13 85/141/13 80/147/13
f 83/137/14 81/144/14 79/149/14
f 82/135/15 79/149/15 77/150/15
f 45/80/11 44/84/11 41/81/11
f 49/77/12 46/79/12 41/83/12
f 48/75/13 49/77/13 44/84/13
f 47/73/14 48/75/14 45/80/14
f 46/71/15 47/73/15 43/85/15
f 54/96/11 53/100/11 50/97/11
f 58/93/12 55/95/12 50/99/12
f 57/91/13 58/93/13 53/100/13
f 56/89/14 57/91/14 54/96/14
f 55/87/15 56/89/15 52/101/15
f 63/112/11 62/116/11 59/113/11
f 67/109/12 64/111/12 59/115/12
f 66/107/13 67/109/13 62/116/13
f 65/105/14 66/107/14 63/112/14
f 64/103/15 65/105/15 61/117/15
f 72/128/11 71/132/11 68/129/11
f 76/125/12 73/127/12 68/131/12
f 72/128/13 75/123/13 76/125/13
f 74/121/14 75/123/14 72/128/14
f 73/119/15 74/121/15 70/133/15
f 81/144/11 80/147/11 77/145/11
f 80/147/12 85/141/12 82/143/12
f 81/144/13 84/139/13 85/141/13
f 83/137/14 84/139/14 81/144/14
f 82/135/15 83/137/15 79/149/15
